PathFileType        4      (X/Y/Z)      C:\Users\pc\Desktop\IMUTRC\Sujet_08\Sujet_08_velo_80.trc         
DataRate	CameraRate	NumFrames	NumMarkers	Units	OrigDataRate	OrigDataStartFrame	OrigNumFrames
60.0	60.0	4	64	mm	60.0	588	940
Frame#	Time	pHipOrigin			pRightASI			pLeftASI			pRightCSI			pLeftCSI			pRightIschialTub			pLeftIschialTub			pSacrum			pL5SpinalProcess			pL3SpinalProcess			pT12SpinalProcess			pIJ			pT4SpinalProcess			pT8SpinalProcess			pPX			pC7SpinalProcess			pTopOfHead			pRightAuricularis			pLeftAuricularis			pBackOfHead			pRightAcromion			pLeftAcromion			pRightArmLatEpicondyle			pRightArmMedEpicondyle			pLeftArmLatEpicondyle			pLeftArmMedEpicondyle			pRightUlnarStyloid			pRightRadialStyloid			pRightOlecranon			pLeftUlnarStyloid			pLeftRadialStyloid			pLeftOlecranon			pRightTopOfHand			pRightPinky			pRightBallHand			pLeftTopOfHand			pLeftPinky			pLeftBallHand			pRightGreaterTrochanter			pRightKneeLatEpicondyle			pRightKneeMedEpicondyle			pRightPatella			pLeftGreaterTrochanter			pLeftKneeLatEpicondyle			pLeftKneeMedEpicondyle			pLeftPatella			pRightTibialTub			pRightLatMalleolus			pRightMedMalleolus			pLeftTibialTub			pLeftLatMalleolus			pLeftMedMalleolus			pRightHeelFoot			pRightFirstMetatarsal			pRightFifthMetatarsal			pRightPivotFoot			pRightHeelCenter			pRightToe			pLeftHeelFoot			pLeftFirstMetatarsal			pLeftFifthMetatarsal			pLeftPivotFoot			pLeftHeelCenter			pLeftToe			
		X1	Y1	Z1	X2	Y2	Z2	X3	Y3	Z3	X4	Y4	Z4	X5	Y5	Z5	X6	Y6	Z6	X7	Y7	Z7	X8	Y8	Z8	X9	Y9	Z9	X10	Y10	Z10	X11	Y11	Z11	X12	Y12	Z12	X13	Y13	Z13	X14	Y14	Z14	X15	Y15	Z15	X16	Y16	Z16	X17	Y17	Z17	X18	Y18	Z18	X19	Y19	Z19	X20	Y20	Z20	X21	Y21	Z21	X22	Y22	Z22	X23	Y23	Z23	X24	Y24	Z24	X25	Y25	Z25	X26	Y26	Z26	X27	Y27	Z27	X28	Y28	Z28	X29	Y29	Z29	X30	Y30	Z30	X31	Y31	Z31	X32	Y32	Z32	X33	Y33	Z33	X34	Y34	Z34	X35	Y35	Z35	X36	Y36	Z36	X37	Y37	Z37	X38	Y38	Z38	X39	Y39	Z39	X40	Y40	Z40	X41	Y41	Z41	X42	Y42	Z42	X43	Y43	Z43	X44	Y44	Z44	X45	Y45	Z45	X46	Y46	Z46	X47	Y47	Z47	X48	Y48	Z48	X49	Y49	Z49	X50	Y50	Z50	X51	Y51	Z51	X52	Y52	Z52	X53	Y53	Z53	X54	Y54	Z54	X55	Y55	Z55	X56	Y56	Z56	X57	Y57	Z57	X58	Y58	Z58	X59	Y59	Z59	X60	Y60	Z60	X61	Y61	Z61	X62	Y62	Z62	X63	Y63	Z63	X64	Y64	Z64	
588	9.783	0.0	1249.97582	7.653894434872941E-14	93.59023949812338	1314.12272	135.05984837608227	92.16906078682362	1327.53378	-128.94711346981518	73.09170005023115	1391.03436	115.7502543875799	71.84356417509329	1402.02174	-101.70765914743312	-68.98900584475913	1212.16631	53.058699405099425	-69.67497017333208	1217.49842	-55.722194601269756	-55.30742116332655	1290.37059	2.315590131137026	10.816975597158386	1371.32171	6.967256189999126	81.00758208342643	1462.45232	8.281229778344066	145.34792061630395	1545.82713	8.271990643340255	393.0221242753779	1578.95084	-14.658285539393535	285.1800598755111	1673.63619	2.0021540935659234	217.30845190705085	1621.44614	6.219796264843595	303.09384387936075	1503.97815	-9.543144197111552	324.5926678584669	1703.04358	1.5359358129801044	495.1376994155417	1869.14688	-32.53806218540808	476.9785246361647	1779.14733	39.12630134181051	430.2985856691338	1789.00366	-86.73361090607037	409.749121771241	1807.42367	-5.68490703721321	345.7199991364636	1639.543	152.56944021406815	317.5049954942723	1654.56985	-159.4423195414147	462.46563733925655	1376.16909	127.56049921804072	433.99589946154214	1367.28224	73.50905986521005	418.9091638005142	1386.67173	-174.96606251611863	400.92088056634026	1375.68435	-117.07945447939187	553.4353176240422	1144.14152	126.4830856773413	596.0834510070632	1164.17732	105.31896337247251	426.454952760122	1364.69697	113.16343392651052	495.6646371502536	1151.89731	-206.1102904645964	542.0117369727648	1173.71049	-213.83521888401108	386.1987217033959	1373.42224	-143.77581849408557	734.7622334982323	1061.73618	182.87380192706888	643.4015200688865	1067.39145	165.06155261559283	596.6580078976122	1114.08781	124.99539100757742	635.9235178912534	1062.54408	-332.0392364646663	564.161533130085	1069.81514	-272.6593587596572	537.6966809850364	1122.00518	-222.5182196991251	38.67814799392047	1235.11054	155.00312725024554	409.8605074605	1114.57254	83.41955413874318	402.25827381256477	1116.83465	7.012914653801158	416.18359538987454	1157.55258	42.95420294080351	-1.652852131265007	1222.3458	-159.1599468748898	183.59999621555824	871.5576	-156.21422277657268	202.73209696345938	875.4355	-81.73383482972883	229.30360082739418	895.63288	-126.7232565990503	436.01507250721227	1072.23882	45.4627098428089	222.19146308993007	763.62277	115.78039661930664	218.6509545193435	758.29066	55.648461122703004	236.77153419994391	833.10177	-126.57378088276766	80.87152606845186	486.51463	-165.00360547243778	88.63329384705432	481.66726	-105.126298653797	152.30985879016745	705.77745	90.4691505642347	286.6294164288813	640.17634	38.232112660361125	293.9286377238278	637.59108	112.48614520337529	309.20926332498055	629.6737	72.15462988093921	186.60350740448007	692.20481	86.55132620465018	380.053013796618	594.44946	63.892178491909995	11.514186587315706	436.58669	-125.3314274236473	145.8286336273931	355.79715	-102.9047751405077	137.16359192221327	354.34294	-177.03931388121407	159.36353392202443	343.8403	-140.90444220127006	44.234277459128144	419.13615	-128.8822018261174	226.18947243122534	301.02184	-147.8978546184385	
589	9.8	0.0	1249.97582	7.653894434872941E-14	93.79796274206967	1314.44588	134.81229345384395	92.02536748655845	1327.21062	-129.27861417488066	73.40327848827451	1391.19594	115.37892966466683	71.80373249680125	1401.86016	-102.16293731361773	-68.98900584475913	1212.16631	53.058699405099425	-69.77883179530524	1217.49842	-55.59841714015059	-55.30742116332655	1290.53217	2.315590131137026	10.920837219131537	1371.32171	6.843478728879961	81.31916694934587	1462.45232	7.90989739498657	145.76336067632045	1545.66555	7.776888459308021	393.41765492412446	1578.14295	-15.381034466962479	285.9270070684692	1672.98987	1.3633509488240805	217.82775358904053	1621.12298	5.600916619692214	303.3855064782581	1503.33183	-10.142108003116924	325.443470245522	1702.39726	0.7733628675635392	496.419580470824	1868.17741	-32.3061471039488	477.6614354575655	1778.01628	39.066561484816894	431.5406427065686	1788.19576	-86.9569675629196	410.867387259236	1806.4542	-6.012124083467316	346.1354456243562	1639.38142	152.0743303695915	317.77674225402365	1653.92354	-160.26892243051236	463.2324927109162	1376.00751	127.14932872851506	434.4312541281363	1366.95908	73.24158267594962	419.0571471874669	1386.02541	-175.89652825975784	400.59366352008624	1374.71488	-118.19771996738694	554.5734989511832	1144.14152	126.38350771417957	597.2017229229343	1164.17732	104.99173866577395	427.117954170253	1364.37381	112.87604732598018	496.8867719206662	1151.41258	-206.56127854409345	543.1300101212042	1173.54891	-214.16242950238907	386.0991437402342	1372.45277	-144.91399982122658	735.9004212532494	1061.89776	182.77421630346277	644.4358397740544	1067.55303	165.08575211355029	597.7962033130736	1114.08781	124.89581181184731	637.5369073120455	1062.22092	-331.9510082555961	565.6312215901676	1069.3304	-272.90263768352855	539.0425932165681	1121.68202	-222.86534615664905	38.90578707701277	1235.75686	154.98321141109952	409.36540527646775	1113.11833	83.00411407872666	401.5355325454402	1114.73412	6.617390432930688	415.7724389886694	1155.77521	42.187346336575516	-0.866079687891002	1222.66895	-159.34346419300257	191.839068618579	875.59707	-157.73787633807584	210.4120360061985	879.47497	-83.09388691226526	236.87967824816013	900.64183	-127.95953122046757	437.73659954834466	1071.91567	44.16519537462364	240.17913446222238	752.31223	112.94508107816915	236.2872105799927	747.46486	52.72921388705893	241.97164925450107	835.68704	-128.74908610031025	67.33703541351082	497.66359	-163.70480732498996	76.21707634055275	492.33148	-104.15471112472707	172.761715542431	691.39691	86.9594979471953	309.653601376764	633.22844	32.66235854139942	317.6357334931114	629.51212	106.85665122741995	332.89644325511813	623.04896	66.29749682189156	207.8222131005272	679.44006	82.6305107585296	405.35785271803866	591.21788	56.8613160862407	-3.6336858279731032	450.96723	-124.12085105739357	126.75545468967324	363.55295	-103.30050035100115	117.40750216309257	363.06821	-177.3752992347139	139.58752832375774	351.27294	-141.4680666378622	28.136017033178042	432.06248	-128.04724026946425	204.16128192786897	305.2229	-149.29664802918282	
590	9.817	0.0	1249.97582	7.653894434872941E-14	94.12946344713512	1314.2843	134.66860015357875	91.90159002543929	1327.21062	-129.3824757968538	73.50714011024766	1391.19594	115.25515220354767	71.80373249680125	1401.86016	-102.16293731361773	-68.86523604408441	1212.16631	53.162554599196476	-69.88269341727839	1217.49842	-55.47463967903143	-55.183643702207384	1290.53217	2.4194517531101747	10.920837219131537	1371.32171	6.843478728879961	81.42302857131902	1462.29074	7.7861199338674085	145.8672222982936	1545.66555	7.6531109981888745	393.72923336216786	1577.81979	-15.752359189875552	286.34244712848573	1672.82829	0.8682487647918607	218.13933845495995	1620.9614	5.229584236334716	303.59322972220446	1503.00867	-10.389662925355246	325.8589167334146	1702.07411	0.27825302308686634	497.33013037531714	1867.36951	-32.385802800088385	478.0967977846041	1777.20838	38.79909072343255	432.4312767719157	1787.8726	-87.26426234215151	411.4066112082478	1805.96946	-6.403372305970779	346.21939140718337	1639.543	151.72291382538003	317.5092714926393	1653.76196	-160.70428475755097	463.81154833822	1376.33067	127.21335867219622	434.8025865114938	1366.95908	73.55316754186907	419.26487043141316	1385.86383	-176.14408318199614	400.80138676403254	1374.5533	-118.44527488962524	555.5039711226985	1144.46468	126.53148344068781	598.1321886665736	1164.82364	105.13972205272673	427.59314817558356	1364.53539	113.06385473078049	498.12882895810094	1151.57416	-206.78463520094274	544.2681978762214	1173.87207	-214.26201512599525	386.4107286061536	1372.12961	-145.28533220458405	736.9546708858838	1062.54408	183.02605365194412	645.4701735675429	1068.03777	165.10995037893943	598.726675484589	1114.57254	125.04378753835557	639.0265051833981	1062.70566	-331.9666404359307	567.1208271219645	1069.65356	-272.91826343598706	540.2846361656823	1122.00518	-223.08870158092995	38.78200961589362	1234.78739	154.8793497891264	407.15305847754627	1106.00885	82.62421561031469	399.3231857465187	1108.10938	6.237491964518664	414.366786900144	1148.66573	41.85156197269863	0.2521998884245562	1223.31527	-159.67068247182496	201.8594220080463	881.41392	-159.87613477893177	219.74946571851274	885.13024	-85.17239017523869	246.0293069835502	907.26658	-129.56284813855476	438.0922985187992	1066.42198	42.987168280870044	256.9845039749625	737.1238	111.016045871034	252.63729426610365	732.59958	50.84000393033965	248.84918367353157	839.8881	-131.4152187360864	56.24681429939504	511.55939	-163.30798533653632	65.91362643724264	505.74254	-103.94142054270677	191.84345413732925	673.62322	84.83129915329225	330.0699024491025	622.24107	27.4354625420391	339.3979455644133	617.39369	101.28261468221513	354.28733060350703	612.38474	60.41188183864342	227.1757125434973	663.28215	79.6757078429605	427.74751817999095	583.78524	49.28265598606067	-16.44115798485427	468.41777	-123.688479816891	109.71109633974936	374.54032	-104.10312005265322	100.03164310810322	375.02506	-178.0342256361008	121.50884384078985	361.77558	-142.29487817702727	14.398086793102117	447.89723	-127.7628459880383	183.72655734571444	312.81711	-150.83485874182534	
591	9.833	0.0	1249.97582	7.653894434872941E-14	94.35710253022745	1314.12272	134.64868431443276	91.5501734812278	1327.53378	-129.46642157968094	73.754695032486	1391.03436	115.46287544749396	71.4722317917358	1402.02174	-102.01924401335258	-68.74145858296524	1212.16631	53.26641622116963	-69.98655503925154	1217.66	-55.35086221791226	-55.16372786306137	1290.37059	2.6470908362024916	10.940753058277553	1371.32171	7.071117811972278	81.42302857131902	1462.29074	7.7861199338674085	145.97108392026675	1545.66555	7.529333537069699	393.68940934432027	1577.49663	-16.20763092818409	286.42639291131286	1672.66671	0.5168322205803862	218.22328423778714	1620.79983	4.878167692123242	303.4694599215297	1503.00867	-10.493518119452311	325.92294667709575	1702.07411	-0.30080260421690735	498.220763208096	1866.7232	-32.693111667640835	478.51224427249673	1776.72364	38.303980878955905	432.9505848817814	1787.54944	-87.88314964774733	411.92591289023744	1805.80788	-7.0222519511221755	346.30333719001044	1640.18932	151.37149728116853	316.8903841870435	1653.92354	-161.22359286741676	464.2867423435506	1376.97698	127.40116607699656	435.1739188948513	1367.28224	73.86475240778853	419.5963570481581	1386.02541	-176.287775249693	401.25665726977275	1374.71488	-118.48511299579337	556.3305740117962	1145.27257	126.80323020043916	599.0825690167904	1165.63154	105.51533043445114	428.06834218091427	1365.02013	113.25166213558077	499.51456520748036	1152.05889	-206.67648992015816	545.5301643249261	1174.51839	-214.2577250393078	386.8659991118938	1372.12961	-145.32517031075218	737.8851289690786	1063.51355	183.17403061102075	646.5244155397329	1068.84566	165.3617812995447	599.7809110289029	1115.38044	125.29562611940538	640.4961936434806	1063.67513	-332.209919359802	568.4866475321978	1070.46145	-273.0377572382948	541.6703865033822	1122.6515	-222.9805575327137	38.55437053280129	1232.68686	154.8992656282724	403.22346829630385	1094.052	82.27987282182774	395.7250962703417	1097.28358	5.7494558757665395	411.73899361332997	1137.03204	41.96677334876328	1.825743542604215	1224.44632	-160.03773119637103	214.0124447515305	889.16972	-162.54504985117654	231.11572367906734	892.4013	-87.65778150149463	256.98011845621227	915.99185	-131.55312962033406	436.874447407198	1056.72723	42.176197572106936	272.36000781289914	718.70378	109.78554723775817	267.78516668139247	714.34115	49.62942756408593	257.85939510702343	845.86652	-134.61200157537536	47.309192466762696	528.52519	-163.21418212894764	57.7627834758604	521.90045	-104.0311423136753	209.35164907804784	653.10267	83.07014908393519	348.31368840081154	607.86053	22.283946240451378	359.11142120877327	601.72052	95.88783354507662	373.40183478141716	598.16578	54.72543167473146	244.9755765109893	643.89266	77.3155863071537	447.6132519771023	572.47471	41.69542980082617	-26.76452372731041	488.77674	-123.702828317963	94.48784422668791	388.59771	-105.06505880702898	84.6846135339226	390.05192	-179.10002601244972	105.58276506718154	375.67138	-143.42471615750173	2.896708045212904	466.80198	-128.1328946921332	165.3604939226606	323.64291	-152.32466526324524	
